<?xml version="1.0" standalone="no"?>
<!DOCTYPE svg PUBLIC "-//W3C//DTD SVG 20010904//EN"
 "http://www.w3.org/TR/2001/REC-SVG-20010904/DTD/svg10.dtd">
<svg version="1.0" xmlns="http://www.w3.org/2000/svg"
 width="512.000000pt" height="512.000000pt" viewBox="0 0 512.000000 512.000000"
 preserveAspectRatio="xMidYMid meet">
<metadata>
Created by potrace 1.14, written by Peter Selinger 2001-2017
</metadata>
<g transform="translate(0.000000,512.000000) scale(0.100000,-0.100000)"
fill="#000000" stroke="none">
<path d="M2425 4716 c-137 -29 -256 -83 -359 -165 -165 -132 -254 -285 -301
-520 -4 -18 -7 -75 -7 -126 l1 -92 -82 -59 c-74 -54 -259 -228 -315 -297 -44
-54 -150 -213 -185 -277 l-36 -65 -55 -1 -56 -1 0 218 0 217 28 7 c16 3 48 23
71 45 109 102 112 265 5 367 -90 87 -235 90 -331 8 -109 -93 -119 -257 -20
-358 23 -23 54 -49 68 -56 l26 -13 0 -232 c0 -200 3 -238 18 -269 21 -44 68
-75 126 -83 24 -4 45 -7 47 -8 1 -2 -9 -34 -23 -72 -14 -38 -27 -78 -30 -89
-3 -11 -14 -53 -24 -94 -11 -41 -22 -88 -24 -105 -3 -17 -10 -67 -17 -111
l-12 -81 -241 -1 c-271 -1 -294 -6 -344 -68 -15 -19 -29 -39 -29 -45 -1 -5 -2
-112 -3 -238 l-1 -227 -31 -14 c-125 -55 -179 -219 -113 -342 88 -161 305
-179 416 -34 60 80 70 173 27 262 -22 46 -90 110 -126 119 -21 6 -22 8 -23
220 l-1 214 231 0 230 0 0 -52 c1 -87 18 -297 26 -309 2 -3 6 -21 8 -40 9 -62
17 -104 21 -115 2 -8 -11 -11 -40 -9 -23 1 -60 -4 -81 -11 -46 -15 -103 -74
-105 -106 -1 -13 -2 -121 -3 -241 l-1 -218 -32 -16 c-18 -8 -49 -33 -70 -54
-148 -152 -46 -414 164 -421 80 -2 130 18 187 75 55 55 76 104 76 173 0 90
-46 170 -123 214 l-50 28 0 206 c0 113 2 209 6 212 11 11 108 10 116 -1 4 -5
20 -44 36 -85 58 -155 192 -394 274 -490 99 -115 145 -163 204 -215 37 -33 74
-65 81 -72 40 -36 192 -131 285 -177 85 -43 221 -95 286 -110 137 -32 159 -31
211 9 29 23 54 78 54 124 0 20 4 21 109 21 l110 0 11 -53 c20 -99 79 -137 183
-118 181 34 410 135 582 257 113 80 270 230 345 329 25 33 48 61 53 63 4 2 7
10 7 17 0 7 4 15 8 17 28 12 168 277 216 411 l29 77 48 0 c27 0 49 -3 50 -7 1
-14 1 -336 0 -379 -1 -36 -5 -43 -30 -54 -39 -16 -82 -56 -112 -105 -34 -56
-34 -170 -1 -235 57 -109 203 -163 315 -117 83 35 157 141 157 225 0 108 -46
177 -160 242 -12 7 -14 49 -15 243 -1 232 -2 236 -25 271 -28 40 -79 66 -133
69 -20 2 -39 5 -42 8 -3 4 -1 26 4 50 26 117 40 239 43 377 l1 92 219 0 218 0
0 -214 0 -214 -23 -6 c-36 -9 -103 -72 -126 -120 -78 -160 29 -346 206 -359
189 -14 326 191 240 360 -26 51 -104 123 -133 123 -11 0 -14 44 -15 233 -1
127 -1 235 0 239 0 3 -16 25 -37 48 -51 58 -96 66 -350 65 -197 -2 -203 -1
-207 19 -2 12 -11 65 -20 118 -18 114 -54 257 -88 351 -16 43 -20 67 -13 68
63 4 119 39 142 89 14 29 17 71 17 265 l0 231 39 19 c80 38 130 121 131 216 2
104 -57 196 -152 236 -55 24 -147 20 -204 -7 -87 -41 -149 -149 -141 -245 8
-86 82 -187 155 -210 18 -6 19 -19 19 -225 l0 -218 -41 2 -42 1 -67 111 c-125
209 -284 387 -463 519 l-94 70 3 80 c1 44 -1 101 -6 125 -5 25 -11 59 -13 75
-13 76 -85 234 -139 305 -119 156 -303 272 -497 316 -53 12 -248 12 -306 0z"/>
</g>
</svg>
